<svg width="242" height="112" viewBox="0 0 242 112" fill="none" xmlns="http://www.w3.org/2000/svg">
<rect x="0.764648" y="46.52" width="83.2757" height="70.786" rx="8.72758" transform="rotate(-25 0.764648 46.52)" fill="#00C1A2"/>
<path fill-rule="evenodd" clip-rule="evenodd" d="M35.6313 89.5219C35.6313 89.5219 30.6581 72.7236 37.9165 69.339C44.0906 66.4599 51.5629 76.9801 53.3913 64.9387C55.4316 51.4647 54.3292 36.0476 86.7412 65.6889L35.6313 89.5219Z" fill="white"/>
<path fill-rule="evenodd" clip-rule="evenodd" d="M28.3434 48.4749C32.3767 46.5942 37.1701 48.3413 39.0495 52.3716C40.9303 56.4049 39.1861 61.197 35.1528 63.0778C31.1195 64.9585 26.3275 63.2144 24.4467 59.1811C22.5673 55.1507 24.3101 50.3557 28.3434 48.4749Z" fill="white"/>
<g clip-path="url(#clip0_188_1746)">
<rect x="165.762" y="11.3262" width="83.2757" height="70.786" rx="8.72758" transform="rotate(25 165.762 11.3262)" fill="#00C1A2"/>
<path fill-rule="evenodd" clip-rule="evenodd" d="M155.232 65.6765C155.232 65.6765 164.904 51.0691 172.162 54.4537C178.336 57.3328 175.08 69.8191 185.48 63.4796C197.113 56.3817 208.215 45.6273 206.342 89.5094L155.232 65.6765Z" fill="white"/>
<path fill-rule="evenodd" clip-rule="evenodd" d="M181.991 33.7093C186.025 35.59 187.767 40.385 185.888 44.4154C184.007 48.4487 179.215 50.1929 175.182 48.3121C171.149 46.4314 169.404 41.6393 171.285 37.606C173.165 33.5756 177.958 31.8285 181.991 33.7093Z" fill="white"/>
</g>
<rect x="62.5" y="1.5" width="116.693" height="98" rx="12.625" fill="#00C1A2"/>
<path d="M118.591 69.0632L138.259 57.7081C143.557 54.6494 143.557 47.0029 138.259 43.9443L118.591 32.5892C113.294 29.5306 106.671 33.3538 106.671 39.471V62.1813C106.671 68.2985 113.294 72.1218 118.591 69.0632Z" fill="white" stroke="#75FAE1" stroke-width="3.17861"/>
<path d="M93 24.6523C93 21.233 90.2276 18.458 86.8057 18.458C83.3838 18.458 80.6113 21.233 80.6113 24.6523C80.6113 28.074 83.384 30.8467 86.8057 30.8467C90.2273 30.8467 93 28.074 93 24.6523Z" fill="white" stroke="#75FAE1" stroke-width="2"/>
<rect x="62.5" y="1.5" width="116.693" height="98" rx="12.625" stroke="#E6ECF2"/>
<defs>
<clipPath id="clip0_188_1746">
<rect x="165.762" y="11.3262" width="83.2757" height="70.786" rx="8.72758" transform="rotate(25 165.762 11.3262)" fill="white"/>
</clipPath>
</defs>
</svg>
