<svg width="210" height="32" viewBox="0 0 210 32" fill="none" xmlns="http://www.w3.org/2000/svg">
<rect width="37" height="32" rx="9" fill="#00DDB3"/>
<path d="M25 13.7679C26.3333 14.5377 26.3333 16.4623 25 17.2321L16.75 21.9952C15.4167 22.765 13.75 21.8027 13.75 20.2631L13.75 10.7369C13.75 9.19726 15.4167 8.23501 16.75 9.00481L25 13.7679Z" fill="#FFFEFE"/>
<path d="M46.125 8.54545H52.0227L56.0795 18.4318H56.2841L60.3409 8.54545H66.2386V26H61.6023V15.9091H61.4659L57.5795 25.8636H54.7841L50.8977 15.8409H50.7614V26H46.125V8.54545ZM76.2653 26.2386C74.8676 26.2386 73.663 25.9716 72.6516 25.4375C71.646 24.8977 70.8704 24.125 70.3249 23.1193C69.7852 22.108 69.5153 20.8977 69.5153 19.4886C69.5153 18.1364 69.788 16.9545 70.3335 15.9432C70.8789 14.9318 71.6488 14.1449 72.6431 13.5824C73.6374 13.0199 74.8107 12.7386 76.163 12.7386C77.1516 12.7386 78.0465 12.892 78.8477 13.1989C79.6488 13.5057 80.3335 13.9517 80.9016 14.5369C81.4698 15.1165 81.9073 15.821 82.2141 16.6506C82.521 17.4801 82.6744 18.4148 82.6744 19.4545V20.5455H70.9812V17.9545H78.3448C78.3391 17.5795 78.2426 17.25 78.0551 16.9659C77.8732 16.6761 77.6261 16.4517 77.3136 16.2926C77.0068 16.1278 76.6573 16.0455 76.2653 16.0455C75.8846 16.0455 75.5352 16.1278 75.217 16.2926C74.8988 16.4517 74.6431 16.6733 74.4499 16.9574C74.2624 17.2415 74.163 17.5739 74.1516 17.9545V20.75C74.1516 21.1705 74.2397 21.5455 74.4159 21.875C74.592 22.2045 74.8448 22.4631 75.1744 22.6506C75.5039 22.8381 75.9016 22.9318 76.3676 22.9318C76.6914 22.9318 76.9869 22.8864 77.2539 22.7955C77.5266 22.7045 77.7596 22.5739 77.9528 22.4034C78.146 22.2273 78.288 22.017 78.3789 21.7727H82.6744C82.5266 22.6818 82.1772 23.4716 81.6261 24.142C81.0749 24.8068 80.3448 25.3239 79.4357 25.6932C78.5323 26.0568 77.4755 26.2386 76.2653 26.2386ZM86.0341 26V12.9091H90.5V15.3977H90.6364C90.9091 14.5795 91.375 13.9318 92.0341 13.4545C92.6932 12.9773 93.4773 12.7386 94.3864 12.7386C95.3068 12.7386 96.0995 12.983 96.7642 13.4716C97.429 13.9545 97.8296 14.5966 97.9659 15.3977H98.1023C98.3239 14.5966 98.7955 13.9545 99.5171 13.4716C100.239 12.983 101.085 12.7386 102.057 12.7386C103.313 12.7386 104.33 13.142 105.108 13.9489C105.892 14.7557 106.284 15.8295 106.284 17.1705V26H101.58V18.3636C101.58 17.7898 101.435 17.3409 101.145 17.017C100.855 16.6875 100.466 16.5227 99.9773 16.5227C99.4943 16.5227 99.1108 16.6875 98.8267 17.017C98.5483 17.3409 98.4091 17.7898 98.4091 18.3636V26H93.9091V18.3636C93.9091 17.7898 93.7642 17.3409 93.4745 17.017C93.1847 16.6875 92.7955 16.5227 92.3068 16.5227C91.983 16.5227 91.7046 16.5966 91.4716 16.7443C91.2387 16.892 91.0568 17.1051 90.9262 17.3835C90.8012 17.6562 90.7387 17.983 90.7387 18.3636V26H86.0341ZM116.317 26.2386C114.919 26.2386 113.715 25.9716 112.704 25.4375C111.698 24.8977 110.922 24.125 110.377 23.1193C109.837 22.108 109.567 20.8977 109.567 19.4886C109.567 18.1364 109.84 16.9545 110.385 15.9432C110.931 14.9318 111.701 14.1449 112.695 13.5824C113.689 13.0199 114.863 12.7386 116.215 12.7386C117.204 12.7386 118.098 12.892 118.9 13.1989C119.701 13.5057 120.385 13.9517 120.954 14.5369C121.522 15.1165 121.959 15.821 122.266 16.6506C122.573 17.4801 122.726 18.4148 122.726 19.4545V20.5455H111.033V17.9545H118.397C118.391 17.5795 118.294 17.25 118.107 16.9659C117.925 16.6761 117.678 16.4517 117.365 16.2926C117.059 16.1278 116.709 16.0455 116.317 16.0455C115.936 16.0455 115.587 16.1278 115.269 16.2926C114.951 16.4517 114.695 16.6733 114.502 16.9574C114.314 17.2415 114.215 17.5739 114.204 17.9545V20.75C114.204 21.1705 114.292 21.5455 114.468 21.875C114.644 22.2045 114.897 22.4631 115.226 22.6506C115.556 22.8381 115.954 22.9318 116.419 22.9318C116.743 22.9318 117.039 22.8864 117.306 22.7955C117.579 22.7045 117.811 22.5739 118.005 22.4034C118.198 22.2273 118.34 22.017 118.431 21.7727H122.726C122.579 22.6818 122.229 23.4716 121.678 24.142C121.127 24.8068 120.397 25.3239 119.488 25.6932C118.584 26.0568 117.527 26.2386 116.317 26.2386ZM126.018 8.54545H131.916L135.972 18.4318H136.177L140.234 8.54545H146.131V26H141.495V15.9091H141.359L137.472 25.8636H134.677L130.791 15.8409H130.654V26H126.018V8.54545ZM153.533 26.2045C152.698 26.2045 151.959 26.0682 151.317 25.7955C150.681 25.517 150.181 25.0966 149.817 24.5341C149.454 23.9716 149.272 23.2557 149.272 22.3864C149.272 21.6705 149.394 21.0597 149.638 20.554C149.883 20.0426 150.223 19.625 150.661 19.3011C151.098 18.9773 151.607 18.7301 152.187 18.5597C152.772 18.3892 153.402 18.2784 154.079 18.2273C154.812 18.1705 155.4 18.1023 155.843 18.0227C156.292 17.9375 156.615 17.821 156.814 17.6733C157.013 17.5199 157.113 17.3182 157.113 17.0682V17.0341C157.113 16.6932 156.982 16.4318 156.721 16.25C156.459 16.0682 156.124 15.9773 155.715 15.9773C155.266 15.9773 154.9 16.0767 154.615 16.2756C154.337 16.4687 154.169 16.767 154.113 17.1705H149.783C149.84 16.375 150.093 15.642 150.542 14.9716C150.996 14.2955 151.658 13.7557 152.527 13.3523C153.397 12.9432 154.482 12.7386 155.783 12.7386C156.721 12.7386 157.562 12.8494 158.306 13.071C159.05 13.2869 159.684 13.5909 160.206 13.983C160.729 14.3693 161.127 14.8239 161.4 15.3466C161.678 15.8636 161.817 16.4261 161.817 17.0341V26H157.419V24.1591H157.317C157.056 24.6477 156.738 25.0426 156.363 25.3438C155.993 25.6449 155.57 25.8636 155.093 26C154.621 26.1364 154.101 26.2045 153.533 26.2045ZM155.067 23.2386C155.425 23.2386 155.76 23.1648 156.073 23.017C156.391 22.8693 156.65 22.6562 156.848 22.3778C157.047 22.0994 157.147 21.7614 157.147 21.3636V20.2727C157.022 20.3239 156.888 20.3722 156.746 20.4176C156.61 20.4631 156.462 20.5057 156.303 20.5455C156.15 20.5852 155.985 20.6222 155.809 20.6562C155.638 20.6903 155.459 20.7216 155.272 20.75C154.908 20.8068 154.61 20.9006 154.377 21.0312C154.15 21.1562 153.979 21.3125 153.865 21.5C153.758 21.6818 153.704 21.8864 153.704 22.1136C153.704 22.4773 153.831 22.7557 154.087 22.9489C154.343 23.142 154.669 23.2386 155.067 23.2386ZM170.21 18.6364V26H165.505V12.9091H169.971V15.3977H170.107C170.391 14.5682 170.891 13.9176 171.607 13.446C172.329 12.9744 173.17 12.7386 174.13 12.7386C175.056 12.7386 175.86 12.9517 176.542 13.3778C177.229 13.7983 177.761 14.3778 178.136 15.1165C178.516 15.8551 178.704 16.6989 178.698 17.6477V26H173.994V18.6364C173.999 17.9886 173.835 17.4801 173.499 17.1108C173.17 16.7415 172.71 16.5568 172.119 16.5568C171.732 16.5568 171.394 16.642 171.104 16.8125C170.82 16.9773 170.602 17.2159 170.448 17.5284C170.295 17.8352 170.215 18.2045 170.21 18.6364ZM182.461 26V12.9091H187.165V26H182.461ZM184.813 11.5455C184.177 11.5455 183.631 11.3352 183.177 10.9148C182.722 10.4943 182.495 9.98864 182.495 9.39773C182.495 8.80682 182.722 8.30114 183.177 7.88068C183.631 7.46023 184.177 7.25 184.813 7.25C185.455 7.25 186 7.46023 186.449 7.88068C186.904 8.30114 187.131 8.80682 187.131 9.39773C187.131 9.98864 186.904 10.4943 186.449 10.9148C186 11.3352 185.455 11.5455 184.813 11.5455ZM194.65 26.2045C193.815 26.2045 193.076 26.0682 192.434 25.7955C191.798 25.517 191.298 25.0966 190.934 24.5341C190.57 23.9716 190.389 23.2557 190.389 22.3864C190.389 21.6705 190.511 21.0597 190.755 20.554C190.999 20.0426 191.34 19.625 191.778 19.3011C192.215 18.9773 192.724 18.7301 193.303 18.5597C193.889 18.3892 194.519 18.2784 195.195 18.2273C195.928 18.1705 196.516 18.1023 196.96 18.0227C197.408 17.9375 197.732 17.821 197.931 17.6733C198.13 17.5199 198.23 17.3182 198.23 17.0682V17.0341C198.23 16.6932 198.099 16.4318 197.837 16.25C197.576 16.0682 197.241 15.9773 196.832 15.9773C196.383 15.9773 196.016 16.0767 195.732 16.2756C195.454 16.4687 195.286 16.767 195.23 17.1705H190.9C190.957 16.375 191.21 15.642 191.658 14.9716C192.113 14.2955 192.775 13.7557 193.644 13.3523C194.514 12.9432 195.599 12.7386 196.9 12.7386C197.837 12.7386 198.678 12.8494 199.423 13.071C200.167 13.2869 200.801 13.5909 201.323 13.983C201.846 14.3693 202.244 14.8239 202.516 15.3466C202.795 15.8636 202.934 16.4261 202.934 17.0341V26H198.536V24.1591H198.434C198.173 24.6477 197.855 25.0426 197.48 25.3438C197.11 25.6449 196.687 25.8636 196.21 26C195.738 26.1364 195.218 26.2045 194.65 26.2045ZM196.184 23.2386C196.542 23.2386 196.877 23.1648 197.19 23.017C197.508 22.8693 197.766 22.6562 197.965 22.3778C198.164 22.0994 198.264 21.7614 198.264 21.3636V20.2727C198.139 20.3239 198.005 20.3722 197.863 20.4176C197.727 20.4631 197.579 20.5057 197.42 20.5455C197.266 20.5852 197.102 20.6222 196.926 20.6562C196.755 20.6903 196.576 20.7216 196.389 20.75C196.025 20.8068 195.727 20.9006 195.494 21.0312C195.266 21.1562 195.096 21.3125 194.982 21.5C194.874 21.6818 194.82 21.8864 194.82 22.1136C194.82 22.4773 194.948 22.7557 195.204 22.9489C195.46 23.142 195.786 23.2386 196.184 23.2386Z" fill="#20272C"/>
</svg>
