<svg width="120" height="32" viewBox="0 0 120 32" fill="none" xmlns="http://www.w3.org/2000/svg">
<rect width="37" height="32" rx="6" fill="#00DDB3"/>
<path d="M46.125 26V8.54545H50.8636V22.1818H57.9205V26H46.125ZM77.5053 17.2727C77.5053 19.2159 77.1275 20.8551 76.3718 22.1903C75.6161 23.5199 74.5963 24.5284 73.3122 25.2159C72.0281 25.8977 70.5963 26.2386 69.0167 26.2386C67.4258 26.2386 65.9883 25.8949 64.7042 25.2074C63.4258 24.5142 62.4088 23.5028 61.6531 22.1733C60.9031 20.8381 60.5281 19.2045 60.5281 17.2727C60.5281 15.3295 60.9031 13.6932 61.6531 12.3636C62.4088 11.0284 63.4258 10.0199 64.7042 9.33807C65.9883 8.65057 67.4258 8.30682 69.0167 8.30682C70.5963 8.30682 72.0281 8.65057 73.3122 9.33807C74.5963 10.0199 75.6161 11.0284 76.3718 12.3636C77.1275 13.6932 77.5053 15.3295 77.5053 17.2727ZM72.6303 17.2727C72.6303 16.2273 72.4911 15.3466 72.2127 14.6307C71.94 13.9091 71.5338 13.3636 70.994 12.9943C70.4599 12.6193 69.8008 12.4318 69.0167 12.4318C68.2326 12.4318 67.5707 12.6193 67.0309 12.9943C66.4968 13.3636 66.0906 13.9091 65.8122 14.6307C65.5394 15.3466 65.4031 16.2273 65.4031 17.2727C65.4031 18.3182 65.5394 19.2017 65.8122 19.9233C66.0906 20.6392 66.4968 21.1847 67.0309 21.5597C67.5707 21.929 68.2326 22.1136 69.0167 22.1136C69.8008 22.1136 70.4599 21.929 70.994 21.5597C71.5338 21.1847 71.94 20.6392 72.2127 19.9233C72.4911 19.2017 72.6303 18.3182 72.6303 17.2727ZM92.473 14.3068C92.3992 14.0057 92.2827 13.7415 92.1236 13.5142C91.9645 13.2812 91.7657 13.0852 91.527 12.9261C91.2941 12.7614 91.0213 12.6392 90.7088 12.5597C90.402 12.4744 90.064 12.4318 89.6946 12.4318C88.8992 12.4318 88.2202 12.6222 87.6577 13.0028C87.1009 13.3835 86.6747 13.9318 86.3793 14.6477C86.0895 15.3636 85.9446 16.2273 85.9446 17.2386C85.9446 18.2614 86.0838 19.1364 86.3622 19.8636C86.6407 20.5909 87.0554 21.1477 87.6066 21.5341C88.1577 21.9205 88.8424 22.1136 89.6605 22.1136C90.3821 22.1136 90.9816 22.0085 91.4588 21.7983C91.9418 21.5881 92.3026 21.2898 92.5412 20.9034C92.7799 20.517 92.8992 20.0625 92.8992 19.5398L93.7174 19.625H89.7287V16.25H97.4674V18.6705C97.4674 20.2614 97.1293 21.6222 96.4532 22.7528C95.7827 23.8778 94.8566 24.7415 93.6747 25.3438C92.4986 25.9403 91.1492 26.2386 89.6265 26.2386C87.9276 26.2386 86.4361 25.8778 85.152 25.1562C83.8679 24.4347 82.8651 23.4062 82.1435 22.071C81.4276 20.7358 81.0696 19.1477 81.0696 17.3068C81.0696 15.8636 81.2884 14.5852 81.7259 13.4716C82.1691 12.358 82.7827 11.4176 83.5668 10.6506C84.3509 9.87784 85.2571 9.29545 86.2855 8.90341C87.314 8.50568 88.4162 8.30682 89.5924 8.30682C90.6265 8.30682 91.5867 8.45455 92.473 8.75C93.3651 9.03977 94.152 9.45454 94.8338 9.99432C95.5213 10.5284 96.0753 11.1619 96.4958 11.8949C96.9162 12.6278 97.1719 13.4318 97.2628 14.3068H92.473ZM118.026 17.2727C118.026 19.2159 117.648 20.8551 116.892 22.1903C116.137 23.5199 115.117 24.5284 113.833 25.2159C112.549 25.8977 111.117 26.2386 109.537 26.2386C107.946 26.2386 106.509 25.8949 105.225 25.2074C103.946 24.5142 102.929 23.5028 102.174 22.1733C101.424 20.8381 101.049 19.2045 101.049 17.2727C101.049 15.3295 101.424 13.6932 102.174 12.3636C102.929 11.0284 103.946 10.0199 105.225 9.33807C106.509 8.65057 107.946 8.30682 109.537 8.30682C111.117 8.30682 112.549 8.65057 113.833 9.33807C115.117 10.0199 116.137 11.0284 116.892 12.3636C117.648 13.6932 118.026 15.3295 118.026 17.2727ZM113.151 17.2727C113.151 16.2273 113.012 15.3466 112.733 14.6307C112.461 13.9091 112.054 13.3636 111.515 12.9943C110.981 12.6193 110.321 12.4318 109.537 12.4318C108.753 12.4318 108.091 12.6193 107.552 12.9943C107.017 13.3636 106.611 13.9091 106.333 14.6307C106.06 15.3466 105.924 16.2273 105.924 17.2727C105.924 18.3182 106.06 19.2017 106.333 19.9233C106.611 20.6392 107.017 21.1847 107.552 21.5597C108.091 21.929 108.753 22.1136 109.537 22.1136C110.321 22.1136 110.981 21.929 111.515 21.5597C112.054 21.1847 112.461 20.6392 112.733 19.9233C113.012 19.2017 113.151 18.3182 113.151 17.2727Z" fill="#20272C"/>
</svg>
