<svg width="44" height="44" viewBox="0 0 44 44" fill="none" xmlns="http://www.w3.org/2000/svg">
<g clip-path="url(#clip0_217_937)">
<path d="M43.5 22.2539C43.5 10.3798 33.8741 0.753906 22 0.753906C10.1259 0.753906 0.5 10.3798 0.5 22.2539C0.5 34.128 10.1259 43.7539 22 43.7539C33.8741 43.7539 43.5 34.128 43.5 22.2539Z" fill="url(#paint0_linear_217_937)"/>
<path opacity="0.1" d="M38.1818 8.10919C35.0474 13.8633 30.6144 19.7984 25.0753 25.3375C19.5362 30.8766 13.6011 35.301 7.85551 38.4355C7.49529 38.1224 7.14545 37.7962 6.80597 37.4567C4.75401 35.4732 3.11747 33.1011 1.99177 30.4786C0.866072 27.8561 0.273742 25.0358 0.249322 22.182C0.224902 19.3282 0.768881 16.4982 1.84954 13.8568C2.93019 11.2154 4.5259 8.81565 6.54362 6.79737C8.56133 4.7791 10.9607 3.18272 13.6017 2.10132C16.2428 1.01993 19.0727 0.47516 21.9265 0.498784C24.7803 0.522407 27.6008 1.11395 30.2236 2.23892C32.8464 3.36388 35.219 4.99976 37.203 7.05117C37.5425 7.39064 37.8688 7.74332 38.1818 8.10919Z" fill="white"/>
<path d="M27.092 10.9382H16.9078C15.2571 10.9382 13.6741 11.5939 12.507 12.7611C11.3398 13.9283 10.6841 15.5113 10.6841 17.1619V27.3461C10.6841 28.9967 11.3398 30.5798 12.507 31.7469C13.6741 32.9141 15.2571 33.5698 16.9078 33.5698H27.092C28.7426 33.5698 30.3256 32.9141 31.4928 31.7469C32.66 30.5798 33.3157 28.9967 33.3157 27.3461V17.1619C33.3157 15.5113 32.66 13.9283 31.4928 12.7611C30.3256 11.5939 28.7426 10.9382 27.092 10.9382ZM31.3354 26.4522C31.3354 27.8147 30.7941 29.1214 29.8307 30.0848C28.8673 31.0483 27.5605 31.5895 26.198 31.5895H17.8017C16.4392 31.5895 15.1325 31.0483 14.169 30.0848C13.2056 29.1214 12.6643 27.8147 12.6643 26.4522V18.0559C12.6643 16.6933 13.2056 15.3866 14.169 14.4232C15.1325 13.4598 16.4392 12.9185 17.8017 12.9185H26.198C27.5605 12.9185 28.8673 13.4598 29.8307 14.4232C30.7941 15.3866 31.3354 16.6933 31.3354 18.0559V26.4522Z" fill="white"/>
<path d="M26.1274 18.1691L26.0736 18.1153L26.0283 18.0701C24.9587 17.0041 23.51 16.4059 21.9999 16.4066C21.2374 16.4118 20.4833 16.5672 19.7808 16.8639C19.0783 17.1606 18.4411 17.5928 17.9057 18.1359C17.3703 18.6789 16.9472 19.3221 16.6604 20.0287C16.3737 20.7353 16.2289 21.4915 16.2345 22.2541C16.2334 23.8017 16.8434 25.2871 17.9319 26.3872C18.4651 26.9268 19.1004 27.3549 19.8008 27.6463C20.5012 27.9377 21.2526 28.0867 22.0112 28.0845C23.1492 28.0607 24.2555 27.7062 25.1954 27.0644C26.1353 26.4225 26.8682 25.521 27.3045 24.4698C27.7409 23.4186 27.862 22.2632 27.6529 21.1444C27.4439 20.0256 26.9138 18.9918 26.1274 18.1691ZM21.9999 26.0901C21.239 26.1008 20.4922 25.8849 19.8543 25.4699C19.2164 25.055 18.7164 24.4596 18.4178 23.7597C18.1192 23.0598 18.0355 22.2868 18.1774 21.5392C18.3193 20.7916 18.6803 20.103 19.2146 19.5612C19.7489 19.0193 20.4323 18.6486 21.1778 18.4961C21.9234 18.3437 22.6974 18.4165 23.4015 18.7052C24.1056 18.9939 24.7079 19.4855 25.1318 20.1174C25.5558 20.7493 25.7822 21.4931 25.7822 22.2541C25.786 22.7544 25.6911 23.2505 25.503 23.7141C25.3149 24.1777 25.0373 24.5996 24.686 24.9559C24.3347 25.3121 23.9167 25.5957 23.4558 25.7903C22.9949 25.9849 22.5002 26.0868 21.9999 26.0901ZM29.4768 16.1379C29.4783 16.3194 29.444 16.4995 29.3758 16.6677C29.3076 16.836 29.2069 16.9891 29.0795 17.1184C28.9521 17.2477 28.8004 17.3506 28.6331 17.4211C28.4659 17.4917 28.2863 17.5286 28.1048 17.5297C27.9248 17.5297 27.7466 17.4939 27.5805 17.4244C27.4144 17.355 27.2638 17.2533 27.1373 17.1252C26.9456 16.9307 26.8153 16.6843 26.7624 16.4165C26.7095 16.1486 26.7363 15.8711 26.8396 15.6184C26.943 15.3657 27.1182 15.1489 27.3436 14.9948C27.569 14.8407 27.8346 14.7562 28.1076 14.7517C28.4271 14.7516 28.7365 14.8638 28.9818 15.0686L29.0101 15.0968C29.0557 15.134 29.0974 15.1757 29.1345 15.2213L29.1657 15.2553C29.3681 15.5047 29.4781 15.8166 29.4768 16.1379Z" fill="white"/>
</g>
<defs>
<linearGradient id="paint0_linear_217_937" x1="6.79724" y1="7.05114" x2="37.2028" y2="37.4567" gradientUnits="userSpaceOnUse">
<stop stop-color="#FAE100"/>
<stop offset="0.15" stop-color="#FCB720"/>
<stop offset="0.3" stop-color="#FF7950"/>
<stop offset="0.5" stop-color="#FF1C74"/>
<stop offset="1" stop-color="#6C1CD1"/>
</linearGradient>
<clipPath id="clip0_217_937">
<rect width="43" height="43" fill="white" transform="translate(0.5 0.753906)"/>
</clipPath>
</defs>
</svg>
