<svg width="45" height="44" viewBox="0 0 45 44" fill="none" xmlns="http://www.w3.org/2000/svg">
<rect x="0.5" y="0.753906" width="44.1749" height="43.0511" rx="21.4645" fill="black"/>
<path d="M22.7147 36.6501C19.8088 36.6501 18.4726 36.292 16.2528 35.0968C14.3295 34.0614 12.6713 32.6755 11.7837 30.6863C8.60332 23.5609 9.5695 12.904 16.3661 9.36241C19.8173 7.56431 25.2919 7.36672 28.7982 9.14927C32.1614 10.8592 33.7888 13.5268 35.1349 16.9494L32.3873 17.7344C31.1184 13.1245 28.061 10.5706 23.0983 10.5706C21.1371 10.5706 19.3574 10.7676 17.8618 11.509C14.2842 13.2817 12.8183 17.4401 12.6741 21.6523C12.5693 24.7131 13.0639 27.8027 14.4298 30.0257C15.9922 32.568 19.2387 34.1759 22.282 34.1759C25.1325 34.1759 27.4261 33.6804 29.1951 32.0211C31.604 29.7611 32.106 26.1573 29.0353 23.96C28.0895 32.0324 17.1432 31.5719 17.1432 25.1557C17.1432 23.8235 17.6614 22.6608 18.6974 21.6681C20.7549 19.6964 23.8508 20.279 26.4328 20.24C26.1605 19.0214 25.1245 17.2558 23.1359 17.2558C21.6035 17.2558 20.2832 17.6411 19.5734 18.8278L17.4344 17.4401C18.3403 15.739 20.167 14.6219 22.9694 14.6219C25.7719 14.6219 28.5152 16.4556 28.97 19.933L29.1105 21.0069C30.6946 21.646 31.835 22.8384 32.6267 24.0397C34.8528 27.4177 33.6254 31.7508 30.4465 34.4447C28.712 35.9146 26.1343 36.6499 22.715 36.6499L22.7147 36.6501ZM19.6972 25.1015C19.6972 26.4233 21.0995 27.4118 22.4572 27.4118C23.9718 27.4118 25.0132 26.9846 25.5811 26.1304C26.149 25.2762 26.433 24.2472 26.433 23.0442C24.8772 22.6487 22.1703 22.3652 20.7357 23.3147C20.0601 23.7619 19.6975 24.3315 19.6975 25.1015H19.6972Z" fill="white"/>
</svg>
