<svg width="39" height="40" viewBox="0 0 39 40" fill="none" xmlns="http://www.w3.org/2000/svg">
<path d="M19.5 0.417969C8.81797 0.417969 0.164062 9.07187 0.164062 19.7539C0.164062 30.4359 8.81797 39.0898 19.5 39.0898C30.182 39.0898 38.8359 30.4359 38.8359 19.7539C38.8359 9.07187 30.182 0.417969 19.5 0.417969ZM28.9102 17.8891C28.6008 17.8891 25.9023 17.8375 23.4102 16.0414V23.8359C23.4102 27.5141 20.4195 30.5047 16.7414 30.5047C13.0633 30.5047 10.0727 27.5141 10.0727 23.8359C10.0727 20.1578 13.0633 17.1672 16.7414 17.1672H17.8242V20.6047H16.7414C14.9625 20.6047 13.5102 22.057 13.5102 23.8359C13.5102 25.6148 14.9625 27.0672 16.7414 27.0672C18.5203 27.0672 19.9727 25.6148 19.9727 23.8359V9.01172H23.4102V9.12344C23.4875 9.95703 23.9773 12.2 25.3867 13.2313C27.0023 14.4172 28.9016 14.4516 28.9188 14.4516H28.9102V17.8891Z" fill="black"/>
</svg>
